<svg xmlns="http://www.w3.org/2000/svg" enable-background="new 0 0 64 64" viewBox="0 0 64 64" id="work-from-home"><path d="M63.63,52.17l-4.35-10.13V9.47c0-1.89-1.53-3.43-3.42-3.43H8.15c-1.89,0-3.42,1.54-3.42,3.43v32.57L0.37,52.17
		c-0.59,1.38-0.47,3,0.34,4.23c0.65,0.99,1.65,1.56,2.72,1.56h57.13c1.08,0,2.08-0.57,2.72-1.56C64.1,55.17,64.22,53.55,63.63,52.17
		z M6.66,9.47c0-0.82,0.66-1.49,1.48-1.49h47.71c0.8,0,1.48,0.69,1.48,1.49v31.83H6.66V9.47z M61.67,55.34
		c-0.17,0.26-0.53,0.69-1.11,0.69H3.43c-0.57,0-0.93-0.43-1.11-0.69c-0.45-0.68-0.51-1.62-0.17-2.4l4.16-9.71h51.37l4.16,9.71
		C62.19,53.72,62.12,54.66,61.67,55.34z"></path><path d="M13.69 46.39h-3.53c-.54 0-.97.43-.97.97 0 .54.43.97.97.97h3.53c.54 0 .97-.43.97-.97C14.66 46.83 14.22 46.39 13.69 46.39zM21.72 46.39H19c-.54 0-.97.43-.97.97 0 .54.43.97.97.97h2.72c.54 0 .97-.43.97-.97C22.69 46.83 22.26 46.39 21.72 46.39zM27.04 48.33h2.72c.54 0 .97-.43.97-.97 0-.54-.43-.97-.97-.97h-2.72c-.54 0-.97.43-.97.97C26.07 47.9 26.5 48.33 27.04 48.33zM37.78 46.39h-2.72c-.54 0-.97.43-.97.97 0 .54.43.97.97.97h2.72c.54 0 .97-.43.97-.97C38.75 46.83 38.32 46.39 37.78 46.39zM45.81 46.39H43.1c-.54 0-.97.43-.97.97 0 .54.43.97.97.97h2.72c.54 0 .97-.43.97-.97C46.78 46.83 46.35 46.39 45.81 46.39zM53.84 46.39h-2.72c-.54 0-.97.43-.97.97 0 .54.43.97.97.97h2.72c.54 0 .97-.43.97-.97C54.81 46.83 54.38 46.39 53.84 46.39zM36.87 51.38h-9.74c-.54 0-.97.43-.97.97 0 .54.43.97.97.97h9.74c.54 0 .97-.43.97-.97C37.84 51.82 37.41 51.38 36.87 51.38zM38.4 29.08h-.11c-.53 0-.97.44-.97.97 0 .53.44.97.97.97h.11c1.84 0 3.36 1.5 3.36 3.36 0 1.85-1.51 3.36-3.36 3.36h-2.98c1.72-2.55.7-6.27.65-6.41l-1.52-7.15c1.6-1.38 2.61-3.32 2.61-5.47 0-.94-.18-1.83-.54-2.67-.01-.71 0-3.63.01-5.45.01-.39-.22-.75-.58-.9-.36-.16-.78-.08-1.06.2l-2.23 2.16c-2.48-1.21-5.59-1.21-8.05 0l-2.23-2.16c-.28-.28-.7-.36-1.06-.2-.36.16-.59.51-.58.9.01 1.82.02 4.74.01 5.46-.36.82-.54 1.72-.54 2.66 0 2.17 1.07 4.25 2.85 5.67l-1.5 7.04c-.04.15-.97 3.45.34 5.98.72 1.4 2.19 2.27 3.84 2.27h6.03c.04 0 .08 0 .12-.01.01 0 .01.01.02.01h6.4c2.92 0 5.29-2.38 5.29-5.29C43.69 31.45 41.32 29.08 38.4 29.08zM22.24 18.7c0-.72.16-1.4.45-2.03.1-.21.12-.26.1-3.78l1.08 1.04c.32.31.8.37 1.17.14 2.19-1.31 5.18-1.32 7.39.01.38.22.86.16 1.17-.15l1.08-1.04c-.01 2.06-.01 2.93.01 3.34v.05c0 .16.05.32.12.46.27.6.42 1.27.42 1.97 0 3.11-2.91 5.64-6.49 5.64-1.45 0-2.81-.41-3.96-1.18C23.17 22.09 22.24 20.47 22.24 18.7zM33.03 37.44c-.33.22-.75.28-1.07.29v-5.28c0-.54-.43-.97-.97-.97-.53 0-.97.43-.97.97v5.28h-2.34v-5.28c0-.54-.44-.97-.97-.97-.53 0-.97.43-.97.97v5.28c-.87-.03-1.66-.49-2.04-1.21-.95-1.83-.2-4.53-.17-4.62l1.38-6.44c1.17.54 2.46.83 3.82.83 1.47 0 2.87-.35 4.08-.96l1.38 6.47C34.21 31.83 35.31 35.94 33.03 37.44z"></path><path d="M26.64 22.74c.07.01.14.01.2.01.8 0 1.48-.36 1.96-.72.52.39 1.26.77 2.15.71.53-.04.94-.5.9-1.03-.04-.53-.48-.94-1.03-.9-.39.03-.79-.25-1.05-.48v-.44c.49-.05.88-.45.88-.95 0-.54-.43-.97-.97-.97h-1.77c-.54 0-.97.43-.97.97 0 .51.39.91.89.95v.43c-.26.23-.68.52-1.06.49-.54-.04-1 .36-1.04.89C25.71 22.23 26.11 22.7 26.64 22.74zM32.69 19.01c.7 0 1.27-.57 1.27-1.26 0-.7-.57-1.27-1.27-1.27-.7 0-1.26.57-1.26 1.27C31.43 18.44 31.99 19.01 32.69 19.01zM24.78 19.01c.7 0 1.26-.57 1.26-1.26 0-.7-.56-1.27-1.26-1.27-.7 0-1.27.57-1.27 1.27C23.51 18.44 24.08 19.01 24.78 19.01z"></path></svg>